<?xml version="1.0" standalone="no"?><!DOCTYPE svg PUBLIC "-//W3C//DTD SVG 1.1//EN" "http://www.w3.org/Graphics/SVG/1.1/DTD/svg11.dtd"><svg t="1685705086020" class="icon" viewBox="0 0 1024 1024" version="1.1" xmlns="http://www.w3.org/2000/svg" p-id="103094" xmlns:xlink="http://www.w3.org/1999/xlink" width="32" height="32"><path d="M580.323556 528.156444a28.444444 28.444444 0 0 1 28.444444-28.444444h113.777778a28.444444 28.444444 0 1 1 0 56.888889h-113.777778a28.444444 28.444444 0 0 1-28.444444-28.444445zM580.323556 673.223111a28.444444 28.444444 0 0 1 28.444444-28.444444h113.777778a28.444444 28.444444 0 1 1 0 56.888889h-113.777778a28.444444 28.444444 0 0 1-28.444444-28.444445zM284.444444 673.223111a28.444444 28.444444 0 0 1 28.444445-28.444444h113.777778a28.444444 28.444444 0 1 1 0 56.888889h-113.777778a28.444444 28.444444 0 0 1-28.444445-28.444445z" fill="#2c2c2c" p-id="103095"></path><path d="M349.468444 512.512l-23.552-25.884444a24.974222 24.974222 0 0 0-35.214222 35.271111l44.373334 46.648889a25.031111 25.031111 0 0 0 27.306666 5.290666 27.192889 27.192889 0 0 0 10.979556-6.485333L440.888889 500.963556c10.808889-10.865778 10.808889-28.444444 0-39.367112a27.932444 27.932444 0 0 0-39.424 0l-51.996445 50.915556z" fill="#2c2c2c" p-id="103096"></path><path d="M853.333333 758.784V343.04c0-37.319111-31.288889-67.811556-70.144-67.811556H240.810667C201.955556 275.228444 170.666667 305.720889 170.666667 343.04v433.208889c0 37.319111 31.288889 67.868444 70.144 67.868444H768a85.333333 85.333333 0 0 0 85.333333-85.333333z m-85.333333 142.222222H240.810667c-69.973333 0-127.032889-55.694222-127.032889-124.757333V343.04c0-69.006222 57.059556-124.700444 127.032889-124.700444h542.378666c69.973333 0 127.032889 55.694222 127.032889 124.700444v415.744a142.222222 142.222222 0 0 1-142.222222 142.222222z" fill="#2c2c2c" p-id="103097"></path><path d="M256 151.438222a28.444444 28.444444 0 1 1 56.888889 0v170.666667a28.444444 28.444444 0 0 1-56.888889 0v-170.666667zM711.111111 151.438222a28.444444 28.444444 0 1 1 56.888889 0v170.666667a28.444444 28.444444 0 1 1-56.888889 0v-170.666667z" fill="#2c2c2c" p-id="103098"></path></svg>